<svg width="428" height="926" viewBox="0 0 428 926" fill="none" xmlns="http://www.w3.org/2000/svg">
<g clip-path="url(#clip0_204_3937)">
<rect width="428" height="926" fill="#C4D7FF"/>
<path d="M-1 925H429V785C429 785 415.495 891.592 325.016 868.527C325.016 868.527 305.928 864.654 257.201 850.942C208.474 837.23 -1 785 -1 785V925Z" fill="#FFD7C4"/>
<path d="M-1 958H429V806C429 806 415.495 921.728 325.016 896.686C325.016 896.686 305.928 892.482 257.201 877.594C208.474 862.707 -1 806 -1 806V958Z" fill="#87A2FF"/>
<path d="M476 99.7135C476 190.13 408.14 12.8704 214 75.1214C-39.4935 22.3858 -48 190.13 -48 99.7135C-48 9.29702 69.3014 -64 214 -64C358.699 -64 476 9.29702 476 99.7135Z" fill="#87A2FF"/>
<rect x="104" y="663" width="27" height="25" fill="white"/>
<path d="M71 848L74.3677 858.365H85.2658L76.4491 864.771L79.8168 875.135L71 868.729L62.1832 875.135L65.5509 864.771L56.7342 858.365H67.6323L71 848Z" fill="#BD77FF"/>
<path d="M124.902 884.069L148.272 895.419L126.757 909.983L124.902 884.069Z" fill="#62AE7D"/>
<circle cx="232" cy="904" r="10" fill="#99123D"/>
<rect x="19" y="892" width="20" height="20" fill="#FEC1A0"/>
</g>
<defs>
<clipPath id="clip0_204_3937">
<rect width="428" height="926" fill="white"/>
</clipPath>
</defs>
</svg>
